HIERARCHY
ROOT Hips
{
	OFFSET 0.000000 0.000000 0.000000 
	CHANNELS 6 Xposition Yposition Zposition Yrotation Zrotation Xrotation 
	JOINT Lumbar
	{
		OFFSET 0.000000 0.000000 0.000000 
		CHANNELS 3 Zrotation Xrotation Yrotation
		JOINT Neck
		{
			OFFSET 0.000000 0.445665 0.000000 
			CHANNELS 3 Zrotation Xrotation Yrotation
			End Site
			{
				OFFSET 0.000000 0.227535 0.000000 
			}
		}
		JOINT RightShoulder
		{
			OFFSET 0.019635 0.377685 0.194865 
			CHANNELS 3 Zrotation Xrotation Yrotation
			JOINT RightElbow
			{
				OFFSET 0.000000 -0.243375 0.000000 
				CHANNELS 2 Zrotation Yrotation
				JOINT RightWrist
				{
					OFFSET 0.000000 -0.264825 0.000000 
					CHANNELS 2 Zrotation Xrotation
					End Site
					{
						OFFSET 0.006600 -0.176220 0.000990 
					}
				}
			}
		}
		JOINT LeftShoulder
		{
			OFFSET 0.019635 0.377685 -0.194865 
			CHANNELS 3 Zrotation Xrotation Yrotation
			JOINT LeftElbow
			{
				OFFSET 0.000000 -0.243375 0.000000 
				CHANNELS 2 Zrotation Yrotation
				JOINT LeftWrist
				{
					OFFSET 0.000000 -0.264825 0.000000 
					CHANNELS 2 Zrotation Xrotation
					End Site
					{
						OFFSET 0.006600 -0.176220 -0.000990 
					}
				}
			}
		}
	}
	JOINT RightHip
	{
		OFFSET 0.052140 -0.069960 0.075570 
		CHANNELS 3 Zrotation Xrotation Yrotation
		JOINT RightKnee
		{
			OFFSET 0.000000 -0.402270 0.000000 
			CHANNELS 1 Zrotation
			JOINT RightAnkle
			{
				OFFSET 0.000000 -0.404085 0.000000 
				CHANNELS 3 Zrotation Xrotation Yrotation
				End Site
				{
					OFFSET 0.204105 -0.089430 0.008415 
				}
			}
		}
	}
	JOINT LeftHip
	{
		OFFSET 0.052140 -0.069960 -0.075570 
		CHANNELS 3 Zrotation Xrotation Yrotation
		JOINT LeftKnee
		{
			OFFSET 0.000000 -0.402270 0.000000 
			CHANNELS 1 Zrotation
			JOINT LeftAnkle
			{
				OFFSET 0.000000 -0.404085 0.000000 
				CHANNELS 3 Zrotation Xrotation Yrotation
				End Site
				{
					OFFSET 0.204105 -0.089430 -0.008415 
				}
			}
		}
	}
}
MOTION
Frames: 11
Frame Time: 0.02
0 0.95578 -0 187.18276 0 -4.52923 7.50718 4.30435 -4.05302 -15.91263 4.84462 -0.73766 9.31284 -15.03773 6.59543 8.6149 80.95628 -0.86894 -0.55981 14.73777 6.98109 -8.69589 6.16607 -78.00464 -2.90473 -0.54614 -5.01299 9.1774 11.68908 -3.35651 0.13311 -5.03543 -13.49006 -5.36236 0.44186 -4.67333 -3.88694 6.28517 5.14986 6.71779
-0.00028 0.95577 3e-05 187.12881 0 -4.52992 7.55923 4.29274 -4.06568 -15.99004 4.85599 -0.75284 9.4473 -14.88155 6.24867 8.66296 80.90272 -0.94699 -0.5589 14.74588 6.87567 -8.20545 6.19025 -77.89032 -3.22504 -0.22454 -5.02111 9.12317 10.00675 -3.35133 0.31063 -4.81897 -11.75468 -5.42518 0.44348 -4.58807 -3.80261 6.26087 5.18404 6.68146
-0.00055 0.95576 6e-05 187.07476 0 -4.53068 7.61113 4.28132 -4.07829 -16.06713 4.86769 -0.76775 9.5811 -14.72579 5.90837 8.71168 80.84978 -1.02416 -0.55853 14.75363 6.76871 -7.72975 6.21592 -77.77753 -3.54161 0.09437 -5.02926 9.06971 8.34923 -3.34617 0.48584 -4.60437 -10.04408 -5.48746 0.4451 -4.50317 -3.71921 6.237 5.21786 6.6456
-0.00083 0.95575 8e-05 187.01868 0 -4.53191 7.66296 4.27088 -4.09012 -16.14356 4.88025 -0.7814 9.71338 -14.56979 5.5915 8.76382 80.79909 -1.09804 -0.56045 14.75949 6.6559 -7.29754 6.24663 -77.66805 -3.84784 0.40487 -5.03789 9.01973 6.80555 -3.34078 0.65094 -4.39551 -8.44569 -5.54841 0.44678 -4.41751 -3.63855 6.21479 5.25032 6.61113
-0.00111 0.95574 0.00011 186.97205 0 -4.53087 7.71519 4.25565 -4.10524 -16.22334 4.88761 -0.80137 9.85347 -14.41456 5.1517 8.79823 80.73685 -1.18869 -0.55044 14.77471 6.57569 -6.6222 6.24927 -77.53898 -4.21058 0.75899 -5.04435 8.9524 4.69577 -3.33628 0.8665 -4.1567 -6.28868 -5.61662 0.44819 -4.33424 -3.54318 6.18402 5.28964 6.56912
-0.00138 0.95573 0.00014 186.90636 0 -4.53451 7.76652 4.25027 -4.11399 -16.29603 4.90641 -0.80817 9.97706 -14.25821 4.97151 8.86986 80.69887 -1.24422 -0.56554 14.77056 6.4255 -6.47041 6.31222 -77.45287 -4.45227 1.02114 -5.05514 8.92113 3.76036 -3.33014 0.97722 -3.98117 -5.29106 -5.66927 0.45014 -4.24709 -3.47914 6.17124 5.31467 6.54324
-0.00159 0.95572 0.00018 186.77653 0 -4.55253 7.81669 4.27544 -4.0994 -16.34998 4.95437 -0.77547 10.0557 -14.09148 5.53653 9.0519 80.73125 -1.19667 -0.65406 14.70729 6.08071 -7.73912 6.54151 -77.47544 -4.3647 1.02182 -5.08071 8.99854 6.3822 -3.31698 0.77238 -3.98501 -7.79895 -5.68014 0.45396 -4.13694 -3.5021 6.2109 5.29733 6.56152
-0.00179 0.95572 0.00022 186.62924 0 -4.57504 7.86579 4.30999 -4.07927 -16.39684 5.01423 -0.72994 10.11776 -13.92489 6.35875 9.27021 80.78759 -1.11455 -0.76722 14.62566 5.66555 -9.5409 6.83185 -77.54303 -4.15435 0.93111 -5.11021 9.11094 10.14061 -3.30253 0.46574 -4.05213 -11.42988 -5.67511 0.45827 -4.02479 -3.55661 6.26827 5.26605 6.59617
-0.00198 0.95571 0.00026 186.49751 0 -4.59454 7.9146 4.33805 -4.06562 -16.44627 5.07041 -0.69239 10.18693 -13.76262 7.04609 9.46735 80.83072 -1.05234 -0.8667 14.55568 5.28244 -11.11897 7.09491 -77.59675 -3.99625 0.88695 -5.13603 9.2013 13.17064 -3.29041 0.22304 -4.08705 -14.34542 -5.67657 0.46211 -3.92172 -3.59645 6.31575 5.24304 6.62361
-0.00221 0.95571 0.0003 186.33437 0 -4.61807 7.96663 4.37536 -4.03592 -16.4978 5.1198 -0.64614 10.2574 -13.58139 7.8107 9.6847 80.88339 -0.97309 -0.97695 14.47072 4.89732 -12.62507 7.35659 -77.62343 -3.85136 0.82124 -5.16959 9.31689 17.07068 -3.27131 -0.0921 -4.13561 -18.10286 -5.68108 0.46696 -3.78512 -3.63778 6.3709 5.21196 6.65012
-0.00237 0.9557 0.00034 186.23154 0 -4.63437 8.01176 4.39583 -4.0375 -16.54409 5.18556 -0.61452 10.32185 -13.44027 8.47371 9.86802 80.9222 -0.92027 -1.07022 14.41389 4.50191 -14.39961 7.63488 -77.71618 -3.65202 0.77914 -5.18825 9.38911 19.45863 -3.26598 -0.28327 -4.17193 -20.40261 -5.67556 0.46988 -3.71671 -3.68337 6.41439 5.19425 6.68239
